<svg xmlns="http://www.w3.org/2000/svg" xmlns:xlink="http://www.w3.org/1999/xlink" width="479" height="277" viewBox="0 0 479 277">
  <defs>
    <linearGradient id="linear-gradient" x1="-714.99" y1="722.8" x2="-714.944" y2="722.763" gradientUnits="objectBoundingBox">
      <stop offset="0" stop-opacity="0.102"/>
      <stop offset="1" stop-opacity="0"/>
    </linearGradient>
    <linearGradient id="linear-gradient-2" x1="-1.134" y1="6.135" x2="-1.104" y2="6.055" xlink:href="#linear-gradient"/>
    <linearGradient id="linear-gradient-3" x1="-0.595" y1="1.369" x2="-0.558" y2="1.34" xlink:href="#linear-gradient"/>
    <linearGradient id="linear-gradient-4" x1="-0.147" y1="1.254" x2="-0.095" y2="1.232" gradientUnits="objectBoundingBox">
      <stop offset="0" stop-color="#fff" stop-opacity="0.2"/>
      <stop offset="1" stop-color="#fff" stop-opacity="0"/>
    </linearGradient>
    <linearGradient id="linear-gradient-5" x1="-0.089" y1="1.321" x2="-0.047" y2="1.299" xlink:href="#linear-gradient-4"/>
  </defs>
  <g id="undraw_web_development_w2vv_1_" data-name="undraw_web_development_w2vv (1)" transform="translate(-111.994 185)">
    <circle id="Ellipse_22" data-name="Ellipse 22" cx="4" cy="4" r="4" transform="translate(123.994 -178)" fill="#63acff"/>
    <circle id="Ellipse_23" data-name="Ellipse 23" cx="4" cy="4" r="4" transform="translate(134.994 -178)" fill="#63a1ff"/>
    <circle id="Ellipse_24" data-name="Ellipse 24" cx="4" cy="4" r="4" transform="translate(145.994 -178)" fill="#63a1ff"/>
    <rect id="Rectangle_63" data-name="Rectangle 63" width="58" height="6" transform="translate(184.994 -23.127)" fill="#63a1ff" opacity="0.3"/>
    <path id="Path_224" data-name="Path 224" d="M0,0H54.865V6H0Z" transform="translate(184.994 -10.127)" fill="#63a1ff" opacity="0.3"/>
    <rect id="Rectangle_65" data-name="Rectangle 65" width="39.973" height="6" transform="translate(184.994 2.873)" fill="#63a1ff" opacity="0.3"/>
    <g id="Group_14" data-name="Group 14" transform="translate(106 -402)" opacity="0.3">
      <rect id="Rectangle_66" data-name="Rectangle 66" width="58" height="6" transform="translate(213.994 378.873)" fill="#6c63ff"/>
      <rect id="Rectangle_67" data-name="Rectangle 67" width="54.865" height="6" transform="translate(213.994 391.873)" fill="#6c63ff"/>
      <rect id="Rectangle_68" data-name="Rectangle 68" width="39.973" height="6" transform="translate(213.994 404.873)" fill="#6c63ff"/>
      <rect id="Rectangle_69" data-name="Rectangle 69" width="58" height="6" transform="translate(213.994 378.873)" fill="#63a1ff"/>
      <path id="Path_225" data-name="Path 225" d="M0,0H54.865V6H0Z" transform="translate(213.994 391.873)" fill="#63a1ff"/>
      <rect id="Rectangle_71" data-name="Rectangle 71" width="39.973" height="6" transform="translate(213.994 404.873)" fill="#63a1ff"/>
    </g>
    <rect id="Rectangle_72" data-name="Rectangle 72" width="58" height="6" transform="translate(459.994 -23.127)" fill="#63a1ff" opacity="0.3"/>
    <rect id="Rectangle_73" data-name="Rectangle 73" width="54.865" height="6" transform="translate(459.994 -10.127)" fill="#63a1ff" opacity="0.3"/>
    <rect id="Rectangle_74" data-name="Rectangle 74" width="39.973" height="6" transform="translate(459.994 2.873)" fill="#63a1ff" opacity="0.3"/>
    <path id="Path_203" data-name="Path 203" d="M556,665.5H77v-277H556Zm-477-2H554v-273H79Z" transform="translate(34.997 -573.5)" fill="#2f2e41"/>
    <rect id="Rectangle_78" data-name="Rectangle 78" width="477" height="2" transform="translate(112.994 -164.935)" fill="#2f2e41"/>
    <g id="html5" transform="translate(160.665 -116.366)">
      <path id="Path_204" data-name="Path 204" d="M84.847.476A1.45,1.45,0,0,0,83.773,0H22.787a1.453,1.453,0,0,0-1.445,1.592L27.15,61.126a1.448,1.448,0,0,0,1.035,1.252l24.685,7.26a1.438,1.438,0,0,0,.82,0l24.685-7.26a1.448,1.448,0,0,0,1.035-1.252L85.217,1.592A1.446,1.446,0,0,0,84.847.476Z" transform="translate(0 0)" fill="#303c42"/>
      <path id="Path_205" data-name="Path 205" d="M95.987,78.3,72.652,85.162,49.317,78.3,43.76,21.333h57.784Z" transform="translate(-19.373 -18.429)" fill="#ffa726"/>
      <path id="Path_206" data-name="Path 206" d="M46.515,21.333H43.76L49.317,78.3l23.335,6.863L51.543,78.3Z" transform="translate(-19.373 -18.429)" fill="#fff" opacity="0.2"/>
      <path id="Path_207" data-name="Path 207" d="M282.137,21.333,277.11,78.3,256,85.162,279.335,78.3l5.557-56.966Z" transform="translate(-202.72 -18.429)" opacity="0.1"/>
      <path id="Path_208" data-name="Path 208" d="M119.115,111.472h20.49l-.632,6.486-4.436,1.3-4.436-1.3-.363-3.722a1.452,1.452,0,0,0-1.445-1.312h-8.753a1.453,1.453,0,0,0-1.445,1.592l1.112,11.4a1.448,1.448,0,0,0,1.035,1.252l13.885,4.084a1.438,1.438,0,0,0,.82,0l13.885-4.084a1.448,1.448,0,0,0,1.035-1.252l2.245-23.013a1.453,1.453,0,0,0-1.445-1.592H128.478l-.425-4.356h23.323a1.452,1.452,0,0,0,1.445-1.312l.849-8.712a1.453,1.453,0,0,0-1.445-1.592H116.85a1.453,1.453,0,0,0-1.445,1.592l2.266,23.233A1.452,1.452,0,0,0,119.115,111.472Z" transform="translate(-81.258 -73.718)" fill="#303c42"/>
      <path id="Path_209" data-name="Path 209" d="M170,106.667l-.566,5.808H145.824a1.453,1.453,0,0,0-1.445,1.594l.709,7.26a1.452,1.452,0,0,0,1.445,1.31h21.906l-1.994,20.445-12.535,3.687-12.535-3.687-.861-8.829h5.835l.33,3.386a1.448,1.448,0,0,0,1.035,1.252l5.786,1.7a1.441,1.441,0,0,0,.82,0l5.785-1.7a1.448,1.448,0,0,0,1.035-1.252l.883-9.054A1.453,1.453,0,0,0,160.578,127H139.8l-1.982-20.329H170Z" transform="translate(-100.63 -92.146)" fill="#fff"/>
      <path id="Path_210" data-name="Path 210" d="M145.31,388.311l-.016.01.035.035C145.32,388.343,145.32,388.324,145.31,388.311Z" transform="translate(-107.085 -335.45)" fill="url(#linear-gradient)"/>
      <path id="Path_211" data-name="Path 211" d="M149.112,278.932l.363,3.722,4.436,1.3,4.436-1.3.632-6.486h-20.49a1.417,1.417,0,0,1-.665-.184h0l1.636,1.636h8.208A1.452,1.452,0,0,1,149.112,278.932Z" transform="translate(-100.631 -238.415)" fill="url(#linear-gradient-2)"/>
      <path id="Path_212" data-name="Path 212" d="M180.346,88.833a1.453,1.453,0,0,1,.37,1.116l-.849,8.712a1.452,1.452,0,0,1-1.445,1.312H155.1l.425,4.356h22.189a1.453,1.453,0,0,1,1.445,1.592l-2.245,23.013a1.448,1.448,0,0,1-1.035,1.252l-13.885,4.084a1.438,1.438,0,0,1-.819,0l-13.885-4.084a1.417,1.417,0,0,1-.583-.384l13.168,13.168,1.711.5,23.335-6.863,3.84-39.365Z" transform="translate(-108.304 -76.74)" fill="url(#linear-gradient-3)"/>
      <path id="Path_213" data-name="Path 213" d="M84.847.476A1.45,1.45,0,0,0,83.773,0H22.787a1.453,1.453,0,0,0-1.445,1.592L27.15,61.126a1.448,1.448,0,0,0,1.035,1.252l24.685,7.26a1.438,1.438,0,0,0,.82,0l24.685-7.26a1.448,1.448,0,0,0,1.035-1.252L85.217,1.592A1.446,1.446,0,0,0,84.847.476Z" transform="translate(0 0)" fill="url(#linear-gradient-4)"/>
    </g>
    <g id="js-icon" transform="translate(318.426 -115.574)">
      <path id="Path_214" data-name="Path 214" d="M7.5,75.086H75.086V7.5H7.5Z" transform="translate(-7.34 -7.34)" fill="#ffe100"/>
      <path id="Path_215" data-name="Path 215" d="M476.9,75.086h3.5V7.5h-3.5Z" transform="translate(-412.645 -7.34)" fill="#ffa800"/>
      <path id="Path_216" data-name="Path 216" d="M7.5,75.086H11V7.5H7.5Z" transform="translate(-7.34 -7.34)" fill="#fff"/>
      <path id="Path_217" data-name="Path 217" d="M67.746,68.907H.161A1.161,1.161,0,0,1-1,67.746V.161A1.161,1.161,0,0,1,.161-1H67.746A1.161,1.161,0,0,1,68.907.161V67.746A1.161,1.161,0,0,1,67.746,68.907ZM1.321,66.585H66.585V1.321H1.321Z"/>
      <path id="Path_218" data-name="Path 218" d="M325.257,217.833a10.5,10.5,0,0,1-10.483-10.483,1.161,1.161,0,0,1,2.321,0,8.161,8.161,0,1,0,8.161-8.161,10.483,10.483,0,1,1,10.483-10.483,1.161,1.161,0,1,1-2.321,0,8.161,8.161,0,1,0-8.161,8.161,10.483,10.483,0,1,1,0,20.966Z" transform="translate(-272.659 -154.752)"/>
      <path id="Path_219" data-name="Path 219" d="M146.034,217.833a10.5,10.5,0,0,1-10.483-10.483,1.161,1.161,0,0,1,2.321,0,8.161,8.161,0,0,0,16.323,0V179.384a1.161,1.161,0,1,1,2.321,0V207.35A10.5,10.5,0,0,1,146.034,217.833Z" transform="translate(-117.907 -154.752)"/>
    </g>
  </g>
  <g id="css-icon" transform="translate(343.64 45.001)">
    <path id="Path_220" data-name="Path 220" d="M78.314,21.915a1.64,1.64,0,0,0-1.254-.583H11.477a1.638,1.638,0,0,0-1.615,1.363L7.614,35.811a1.639,1.639,0,0,0,1.615,1.917H59.558l-.842,4.919H7.823a1.638,1.638,0,0,0-1.615,1.363L3.96,57.126a1.639,1.639,0,0,0,1.615,1.917H55.906L54.2,69.018,31.644,76.192l-13.422-5.22.873-5.095a1.639,1.639,0,0,0-1.615-1.917H4.17a1.638,1.638,0,0,0-1.615,1.363L.024,80.08a1.636,1.636,0,0,0,1.022,1.8L30.558,93.362a1.615,1.615,0,0,0,.594.112,1.64,1.64,0,0,0,.5-.077L67.719,81.92a1.638,1.638,0,0,0,1.119-1.286l9.837-57.385A1.644,1.644,0,0,0,78.314,21.915Z" transform="translate(0)" fill="#303c42"/>
    <path id="Path_221" data-name="Path 221" d="M84.95,97.151l-34.569,11L22.657,97.368l2.069-12.074h9.982l-.77,4.5a1.636,1.636,0,0,0,1.022,1.8L50.17,97.511a1.654,1.654,0,0,0,1.09.035l24.054-7.652a1.638,1.638,0,0,0,1.119-1.286L78.64,75.734a1.639,1.639,0,0,0-1.615-1.917H26.693l1.686-9.837H79.272a1.638,1.638,0,0,0,1.616-1.363l1.406-8.2A1.639,1.639,0,0,0,80.678,52.5H30.347l1.686-9.837H94.291Z" transform="translate(-19.174 -18.054)" fill="#0288d1"/>
    <path id="Path_222" data-name="Path 222" d="M91.17,42.665,82.285,94.486l-34.569,11-24.8-9.644-.262,1.527,27.724,10.782,34.569-11,9.341-54.486Z" transform="translate(-19.174 -18.054)" opacity="0.1"/>
    <path id="Path_223" data-name="Path 223" d="M78.314,21.915a1.64,1.64,0,0,0-1.254-.583H11.477a1.638,1.638,0,0,0-1.615,1.363L7.614,35.811a1.639,1.639,0,0,0,1.615,1.917H59.558l-.842,4.919H7.823a1.638,1.638,0,0,0-1.615,1.363L3.96,57.126a1.639,1.639,0,0,0,1.615,1.917H55.906L54.2,69.018,31.644,76.192l-13.422-5.22.873-5.095a1.639,1.639,0,0,0-1.615-1.917H4.17a1.638,1.638,0,0,0-1.615,1.363L.024,80.08a1.636,1.636,0,0,0,1.022,1.8L30.558,93.362a1.615,1.615,0,0,0,.594.112,1.64,1.64,0,0,0,.5-.077L67.719,81.92a1.638,1.638,0,0,0,1.119-1.286l9.837-57.385A1.644,1.644,0,0,0,78.314,21.915Z" transform="translate(0)" fill="url(#linear-gradient-5)"/>
  </g>
</svg>
